<svg xmlns="http://www.w3.org/2000/svg" fill="none" viewBox="0 0 24 24"><path fill="#009CFF" d="M9.26 3.067c1.2-1.28 3.1-1.039 4.285.098.965.926 1.499 2.386 1.42 4.257 1.068-.032 1.976.04 2.74.204 1.106.239 1.998.69 2.584 1.385.895 1.06.823 2.276.39 3.234.387.582.535 1.283.48 1.922a3.04 3.04 0 0 1-.79 1.8 3.33 3.33 0 0 1-.09 2.041c-.287.778-.908 1.537-1.81 1.874-.19.45-.493.827-.887 1.117-.595.44-1.312.622-1.932.708-.636.09-1.308.095-1.902.082-.65-.013-1.119-.043-1.595-.043-1.296 0-2.33-.514-3.088-.928-.414-.226-.696-.394-1.002-.541-.288-.139-.488-.203-.643-.222-1.955-.243-3.31-.936-4.025-2.271-.624-1.167-.604-2.618-.604-3.795 0-.73.066-1.377.269-1.948a3.2 3.2 0 0 1 .998-1.424c.392-.328.866-.59 1.294-.827.455-.252.953-.523 1.54-.906.814-.529 1.074-1.26 1.237-2.283.068-.428.148-1.164.255-1.678.12-.575.338-1.28.877-1.856M5.292 13.989c0 1.369.04 2.113.308 2.615.178.332.59.779 2.13.97.54.068 1.02.258 1.42.45.381.185.797.427 1.114.6.701.383 1.262.622 1.89.622.484 0 1.143.033 1.647.043.56.012 1.071.003 1.504-.057.449-.063.687-.165.796-.245.047-.035.09-.065.1-.24l.013-.124a1.25 1.25 0 0 1 1.235-1.058c.162 0 .368-.102.487-.424.127-.343.019-.564-.06-.636a1.25 1.25 0 0 1 .462-2.119.44.44 0 0 0 .233-.157.55.55 0 0 0 .098-.276c.022-.25-.092-.368-.156-.4a1.25 1.25 0 0 1-.345-1.981c.418-.438.34-.797.212-.949-.116-.137-.432-.387-1.201-.552-.766-.165-1.895-.226-3.503-.055a1.25 1.25 0 0 1-1.357-1.492c.434-2.133-.105-3.173-.503-3.555-.436-.418-.707-.217-.73-.193-.07.075-.167.24-.254.658-.1.478-.12.855-.233 1.561-.2 1.247-.627 2.87-2.341 3.985-.675.44-1.251.752-1.695.998-.472.26-.724.41-.9.556a.7.7 0 0 0-.246.344c-.065.184-.125.506-.125 1.11"/></svg>