<svg xmlns="http://www.w3.org/2000/svg" fill="none" viewBox="0 0 24 24"><path fill="#009CFF" d="M14.701 20.934c-1.199 1.279-3.099 1.038-4.284-.1-.965-.925-1.499-2.385-1.42-4.256-1.068.032-1.976-.04-2.74-.204-1.106-.238-1.998-.69-2.584-1.385-.895-1.06-.823-2.276-.39-3.233a3.04 3.04 0 0 1-.48-1.923c.055-.64.317-1.29.79-1.8a3.33 3.33 0 0 1 .09-2.04c.287-.779.908-1.538 1.809-1.875.191-.45.494-.827.888-1.117.595-.439 1.312-.622 1.932-.708.636-.089 1.308-.094 1.902-.082.65.013 1.119.043 1.595.043 1.296 0 2.33.514 3.088.929.414.226.696.393 1.002.54.288.14.488.203.643.222 1.954.243 3.31.936 4.025 2.272.624 1.166.604 2.617.604 3.795 0 .729-.066 1.377-.269 1.947a3.2 3.2 0 0 1-.998 1.424c-.392.328-.866.59-1.294.827-.455.252-.953.523-1.54.906-.814.53-1.074 1.261-1.237 2.283-.069.428-.148 1.164-.255 1.678-.12.575-.338 1.28-.877 1.856m3.97-10.922c0-1.37-.04-2.114-.308-2.616-.178-.331-.59-.779-2.13-.97-.54-.067-1.02-.258-1.42-.45-.382-.184-.798-.426-1.114-.6-.701-.382-1.262-.622-1.89-.622-.484 0-1.143-.033-1.647-.043-.561-.012-1.071-.003-1.504.057-.449.063-.687.166-.796.246-.047.034-.09.065-.1.24l-.013.123a1.25 1.25 0 0 1-1.236 1.058c-.161 0-.367.102-.486.424-.127.343-.019.564.06.636a1.25 1.25 0 0 1-.462 2.12.44.44 0 0 0-.233.156.55.55 0 0 0-.098.277c-.022.25.092.367.156.4a1.25 1.25 0 0 1 .345 1.98c-.418.438-.34.797-.212.949.116.137.432.387 1.201.553.766.164 1.895.225 3.503.054a1.25 1.25 0 0 1 1.357 1.492c-.434 2.134.105 3.173.503 3.555.436.418.707.217.73.194.07-.076.167-.242.254-.659.1-.478.12-.855.233-1.561.2-1.246.627-2.87 2.34-3.985.676-.439 1.252-.752 1.696-.998.472-.26.724-.41.9-.556a.7.7 0 0 0 .246-.344c.065-.184.125-.505.125-1.11"/></svg>